<svg width="401" height="804" xmlns="http://www.w3.org/2000/svg"><g fill="none" fill-rule="evenodd"><path d="M235.906 19.403c42.541 1.756 45.602 35.304 45.23 47.988l-.034.901-.043.82-.048.733-.052.644-.075.784-.045.396-.068.525a158 158 0 0 1-.387 3.345l.372-.303.191-.15.391-.295c2.117-1.55 4.714-2.71 7.183-1.371 3.3 1.788 3.899 6.989 2.902 10.242a23.3 23.3 0 0 1-6.042 9.206 51.42 51.42 0 0 1-11.13 8.467c-9.55 24.944-25.765 30.592-34.097 31.8l-.676.09-.323.039-.618.063c-.199.019-.391.034-.576.048l-.533.034-.489.021-.441.012-.393.004-.494-.006-.554-.023-.19-.014c-19.396-.326-30.569-12.462-36.999-25.868l-.43-.916c-.142-.305-.28-.612-.417-.919l-.403-.921a75.056 75.056 0 0 1-.196-.462l-.381-.923a78.038 78.038 0 0 1-.186-.463l-.361-.924c-16.964-11.164-19.128-19.894-18.776-24.339l.037-.38.023-.183.054-.347.061-.324c.022-.104.045-.205.069-.301l.072-.277.076-.254.077-.23.112-.298.103-.243.114-.235.09-.162c2.145-3.839 4.69-4.302 6.885-3.598l.304.105.15.058.296.126.146.067.287.143.28.153.275.161.267.169.259.174.25.179.36.273.229.184.218.184.208.182.384.355.337.333.351.369.265.296-.08-1.085-.074-1.356c-1.31-45.289 31.448-51.56 42.855-52.389l.752-.049.68-.034.312-.012.566-.017.88-.01.308.002.35.006Z" fill="#FFDEB7"/><path d="M181.81 78.68s3.913-2.473 9.874 10.733M276.46 90.353s3.069-9.068 10.268-9.493" stroke="#000001" stroke-width="2" stroke-linecap="round" stroke-linejoin="round"/><g transform="rotate(1 -3709.777 11760.961)"><ellipse fill="#102030" cx="8.92" cy="12.92" rx="2.67" ry="4.84"/><ellipse fill="#102030" cx="48.58" cy="13.05" rx="2.67" ry="4.84"/><path stroke="#000001" stroke-width="2" stroke-linecap="round" stroke-linejoin="round" d="m0 .715 13.85-.43M57.5.755 43.65.335"/></g><path d="m229.203.78.797.013.92.03.884.047.24.018 1.64.137 2.436.185 2.41.175 1.596.12c6.098.476 12.019 1.155 18.072 3.4a51.52 51.52 0 0 1 21.551 15.009 67.81 67.81 0 0 1 4.986 6.588l.504.771.392.621.26.432.128.22.248.45c.97 1.819 1.63 3.875.725 5.726a2.76 2.76 0 0 1-2.508 1.597c-.646-.033-1.218-.323-1.786-.64l-.489-.275a5.846 5.846 0 0 0-1.012-.463 18 18 0 0 1 2.101 3.407c.253.437.386.933.385 1.437a2.176 2.176 0 0 1-.663 1.199l.17.12.335.25.333.26c.11.09.22.18.33.274l.326.285.162.148.32.305.158.157.313.325.308.338.151.175.3.359a16.72 16.72 0 0 1 1.646 2.462l.247.464.12.238.232.489c.873 1.904 1.53 4.173 1.87 6.875l.082.715c.469 4.59.045 10.381-1.737 17.685l-.02-.02-.064-.047-.15-.09-.104-.053-.189-.086-.148-.057-.165-.056-.182-.052a4.173 4.173 0 0 0-.097-.025l-.206-.044-.222-.035a4.547 4.547 0 0 0-.118-.014l-.245-.02c-1.562-.086-3.986.555-6.909 3.885a42.14 42.14 0 0 1-3.167 9.567l-3.591.017.097-.56.15-.983.115-.854.128-1.033.105-.954.054-.52.106-1.12.102-1.23.096-1.336.087-1.441.04-.76.053-1.187.03-.823.038-1.282.027-1.337.012-.922.007-1.429-.003-.982-.01-1.006-.015-1.029-.024-1.052-.03-1.075-.039-1.099-.073-1.689-.06-1.154-.068-1.176-.078-1.197-.087-1.22-.15-1.868-.114-1.272-.125-1.293c-1.172.835-3.098.7-4.597.214-2.175-.71-4.153-1.806-6.103-2.946l-1.46-.858c-1.947-1.14-3.908-2.236-6.051-2.945a77.35 77.35 0 0 0-9.446-2.635 61.46 61.46 0 0 0-8.83-1.234c-10.132-.527-20.38-.146-30.264 2.282a66.16 66.16 0 0 0-7.833 2.393l-.064.027-.304.148-.746.38-.33.163-.325.149a6.096 6.096 0 0 1-.299.122l-.104.707-.197 1.398-.183 1.376-.17 1.353-.155 1.33-.142 1.308-.13 1.284-.06.634-.112 1.249-.1 1.225-.089 1.202-.078 1.177-.068 1.152-.058 1.127-.048 1.102-.056 1.606-.038 1.547-.015.999-.008.972v.946l.005.918.019 1.327.03 1.264.042 1.2.05 1.137.06 1.072.086 1.325.07.917.073.848.1 1.023.121 1.103.155 1.21.133.888.06.351-3.599-.143a42.14 42.14 0 0 1-2.831-9.67c-2.881-3.523-5.335-4.194-6.885-4.128l-.237.016a4.471 4.471 0 0 0-.113.012l-.213.03-.198.04a4.07 4.07 0 0 0-.093.021l-.173.047-.156.05-.2.075-.16.072-.118.062-.098.064-.004.007-.224-1.11c-.071-.368-.14-.731-.204-1.09l-.185-1.066c-.498-2.988-.767-5.69-.845-8.137l-.02-.853c-.03-2.246.105-4.268.377-6.086l.108-.673c.038-.221.078-.44.12-.654l.133-.636c.392-1.774.925-3.33 1.562-4.693l.23-.473c.155-.31.317-.61.483-.9l.253-.427.13-.208.263-.404c.178-.265.361-.52.548-.766l.283-.362c.143-.177.288-.35.435-.517l.297-.328.3-.315.307-.302.31-.29c.103-.094.208-.186.313-.276l.317-.266.32-.253.322-.242c-2.351-3.174-3.017-6.676-2.982-9.713l.012-.516c.004-.085.007-.17.012-.254l.03-.5.043-.49.052-.477.03-.233.064-.458.072-.442.078-.428.041-.207.085-.403.134-.571.09-.358.183-.654.133-.435.203-.61.192-.523.119-.31c7.728-13.598 21.57-18.597 32.162-20.371l.926-.149c.306-.046.608-.09.908-.132l.888-.117.866-.104.425-.046.833-.083.807-.071.782-.06.754-.049.725-.039.694-.03.663-.022.63-.015 1.152-.011.52.002Z" fill="#102030"/><path d="m96.803 38.39 2.22.86a6.42 6.42 0 0 0 2.87.61c.524-.036 1-.257 1.358-.6l.171.117.34.243.338.255c.112.087.224.177.334.268l.332.28.164.145.325.299c.054.05.108.102.161.154l.319.32.313.332.155.172.305.354a16.72 16.72 0 0 1 1.69 2.433l.254.46.124.236.241.484c.906 1.89 1.603 4.146 1.99 6.842l.094.713c.549 4.582.226 10.38-1.428 17.713l-.006-.008-.052-.04-.107-.065-.177-.092-.183-.078-.142-.054-.243-.076a4.068 4.068 0 0 0-.089-.023l-.19-.043-.203-.037c-.07-.01-.144-.02-.219-.028l-.233-.019c-.2-.01-.415-.01-.643.009l-.28.029-.293.047c-1.497.28-3.46 1.275-5.7 3.918a42.14 42.14 0 0 1-3 9.62l-3.59.08.087-.563.132-.984.102-.856.109-1.035.089-.956.044-.52.086-1.122.081-1.231.073-1.338.062-1.443.026-.76.032-1.188.016-.823.016-1.282.004-1.338-.005-.922-.018-1.428-.02-.982-.026-1.006-.034-1.029-.042-1.051-.05-1.075-.057-1.097-.102-1.688-.08-1.152-.09-1.175-.098-1.196-.109-1.217-.12-1.239-.063-.627-.136-1.27-.147-1.29c.326-.24.59-.554.768-.957.607-1.356-.18-2.842-1.107-4.066l-.255-.326a17.343 17.343 0 0 0-.128-.158c2.67 3.22 9.1 1.41 6.26-3a9.69 9.69 0 0 0-2.62-2.44Zm-80.18 7.66c.096.033.294-.018.54-.116l-.092.701-.17 1.385c-.055.459-.108.913-.158 1.364l-.144 1.341-.132 1.32-.119 1.296-.106 1.273-.096 1.25c-.015.207-.03.413-.043.617l-.079 1.215-.068 1.192-.058 1.168-.049 1.143-.039 1.12-.03 1.093-.012.538-.018 1.057-.012 1.537v.993l.014 1.44.028 1.382.04 1.32.05 1.26.06 1.199.069 1.135.075 1.072.08 1.007.112 1.242.116 1.123.144 1.235.189 1.407.177 1.134.13.727-3.6-.08a42.14 42.14 0 0 1-3-9.62c-2.813-3.32-5.19-4.04-6.746-4.015l-.246.01-.23.021-.11.015-.207.035-.192.042-.176.047-.233.076-.195.078-.108.05-.092.047-.108.062-.057.04a.049.049 0 0 0-.01.01l-.242-1.105a83.447 83.447 0 0 1-.224-1.086l-.203-1.063c-.55-2.978-.867-5.676-.987-8.12l-.034-.853c-.07-2.245.03-4.269.27-6.092l.096-.675c.205-1.33.487-2.55.833-3.667l.177-.55c.245-.723.516-1.4.81-2.037l.226-.47.233-.453c.159-.298.323-.585.492-.863l.257-.409c.217-.335.44-.655.671-.96l.28-.36.285-.346.291-.333c.098-.11.197-.216.296-.32l.3-.308.152-.149.307-.288c.103-.095.206-.187.31-.277l.314-.265.158-.128.319-.247c1.927 2.514 4.936 4.797 9.524 6.436Z" fill="ivory" opacity=".2" style="mix-blend-mode:screen" transform="rotate(1 94.337 10339.88)"/><path d="M213.453 126.253c5.582 3.88 12.45 6.395 20.9 6.65l.654.017.484.027.622.013.538-.004.63-.02.532-.03.578-.042.623-.059.44-.05.694-.09.485-.072.502-.082.518-.094.534-.105.55-.118.563-.13.287-.07.584-.15.297-.081.604-.173.306-.092.621-.196.633-.212.32-.112.648-.238.328-.126.662-.265a37.455 37.455 0 0 0 4.841-2.418l-.46 26.303c-.192 11.044-9.301 19.84-20.345 19.648-11.044-.193-19.84-9.302-19.648-20.346l.475-27.283Z" fill="#FFDEB7"/><path d="M213.453 126.253c5.582 3.88 12.45 6.395 20.9 6.65l.654.017.484.027.622.013.538-.005.63-.02.532-.029.578-.042.623-.06.44-.048.694-.09.485-.073.502-.083.518-.093.534-.105.55-.118.563-.13.287-.07.584-.15.297-.081.604-.173.306-.092.621-.196.633-.212.32-.112.648-.238.327-.126.662-.265" stroke="#000001" stroke-width="2" stroke-linecap="round" stroke-linejoin="round"/><path d="M235.572 96.82c5.928 4.173 16.175 2.742 20.988.896a1.44 1.44 0 0 1 1.734 2.03c-7.416 15.783-22.73 8.385-25.887 7.08a1.43 1.43 0 0 0-1.211.048c-14.563 7.477-23.214-.545-27.031-5.912a1.43 1.43 0 0 1 1.648-2.172c9.116 3.16 18.5-.397 21.277-1.949a3.3 3.3 0 0 0 3.59 2.883 6.17 6.17 0 0 0 4.892-2.905Z" fill="#102030"/><path d="M221.556 107.536s12.16 9.294 22.02-1.005" stroke="#000001" stroke-width="2" stroke-linecap="round" stroke-linejoin="round"/><path d="M238.151 76.431s2.973 23.946-8.338 23.328c0 0-5.371-1.154-.821-7.415a40.68 40.68 0 0 0 3.959-15.373s-.132-3.913 2.614-3.655c-.02 0 2.31-.57 2.586 3.115Z" fill="#F49262" fill-rule="nonzero"/><g stroke="#000001" stroke-linecap="round" stroke-linejoin="round" stroke-width="2"><g transform="rotate(1 -3348.135 10903.843)"><path d="M39.44 13.936s5.82-5.49 11.36-.09"/><circle transform="rotate(-83.63 24.364 16.928)" cx="24.364" cy="16.928" r="15.32"/><circle transform="rotate(-83.63 65.96 16.925)" cx="65.96" cy="16.925" r="15.32"/><path d="M0 13.446h9.44M81.55 13.446h9.44"/></g></g><g><path d="M231.083 758.685c2.346-1.576 5.387-1.671 8.444-1.432l.764.067.762.076 2.252.248.732.076.718.066c.592.05 1.167.085 1.72.096l.328.003h47.8a241.19 241.19 0 0 1 68.52 31.35 8.34 8.34 0 0 1 3.546 5.507l.044.293.81 6c-5.113.537-12.621.937-21.561 1.23l-3.213.1-3.323.09-1.7.042-3.469.079-3.556.07-3.632.063-3.7.056-3.756.05-3.806.042-5.78.053-5.834.04-5.86.027-5.853.016-5.813.007-5.743-.002-7.493-.016-10.733-.043-9.9-.06-12.736-.108-15.539-.176-.07-1.634-.034-1.013-.034-1.422-.011-.892c-.003-.145-.003-.289-.003-.431v-.838l.018-1.204.02-.779.029-.765.016-.38.039-.758.045-.761.078-1.161.126-1.617.489-5.797.192-2.415.274-3.724.066-.82.073-.856.081-.888.09-.914.102-.933.112-.947.124-.955.137-.957c.599-3.984 1.556-7.869 3.161-9.749a7.37 7.37 0 0 1 1.44-1.3Zm-93.76-.94a7.33 7.33 0 0 1 1.44 1.28c1.998 2.346 2.16 5.702 1.944 9.002l-.051.705-.06.702-.26 2.72-.053.646-.043.628-1.367 28.217-9.406.118-10.54.107-8.636.07-7.976.05-6.79.03-7.078.022-5.454.007-7.409-.003-5.62-.013-5.64-.023-5.632-.036-5.593-.048-3.692-.04-3.652-.045-3.604-.053-3.546-.06c-.585-.01-1.168-.02-1.748-.032l-3.443-.07-3.364-.079-3.274-.086c-.538-.015-1.072-.03-1.601-.047l-3.125-.099c-8.7-.293-16.063-.693-21.177-1.23l.82-6a8.34 8.34 0 0 1 3.59-5.79 241.19 241.19 0 0 1 68.52-31.35h47.8c.652 0 1.338-.039 2.049-.099l.718-.066.731-.076 2.253-.248.762-.076.764-.067c3.056-.24 6.098-.144 8.443 1.432Z" fill="#49ADCF"/><path d="m79.943 726.875-6.15 30.06s22 17.33 55.82 0l4.82-27.16-55.49-2.9M293.623 725.385l1 32.5s-22 17.33-55.83 0l.34-29.6 55.49-2.9" fill="#FFF"/><path d="m296.303 306.745 12.75 423.89h-89.82v-359.92s-58 291.41-66.61 359.92l-89.45-4.75s50.48-262.91 94.52-419.14h138.61Z" fill="#102030"/><path d="M276.063 312.335a17.93 17.93 0 0 0-9 5.91s2.08 9.52 8.08 7.67c-.05.01 3.93-1.08.92-13.58Z" fill="#102030"/><path d="M32.473 149.455c.18-24.19 6.35-77.47 6.35-77.47 2.47-16.49 12.94-13.08 12.94-13.08 10.23 1 5.74 17.32 5.74 17.32 10.2-22.61 22.65-16.35 22.65-16.35 7.53 2.81 4.58 8.3 4.58 8.3 8.69-8.22 15.32-2.08 15.32-2.08 4.82 4.79 2 8.4 2 8.4 17.37-.46 22 17.77 22 17.77 2.54 10.64-8.22 11.47-8.22 11.47-8.15 2.3-10.72-6.29-10.72-6.29-1.33-5.9-6-6.49-6-6.49-9.73-3-11.78 6.66-11.78 6.66-4.75 14.13 3.73 19.76 3.73 19.76 12.69 7.36 15.88-5.84 15.88-5.84 4.45-9.81 12.54-6.56 12.54-6.56 7.6 2.5 5.71 10.5 5.71 10.5a42 42 0 0 1-28.46 36.22l-64.26-2.24Z" fill="#FFDEB7"/><path d="M265.423 161.335c-5.086 31.174-7.952 64.148-9.567 91.304l-.213 3.666-.198 3.59c-.063 1.183-.124 2.353-.183 3.509l-.17 3.424-.08 1.679-.219 4.897-.131 3.143-.175 4.522-.103 2.88-.135 4.106-.114 3.838-.065 2.402-.057 2.272-.071 3.155-.072 3.71-.058 3.795-.04 3.615-.009 1.493c-10.213 1.577-22.401 1.876-34.148 1.569l-2.13-.063c-1.063-.034-2.12-.073-3.17-.117l-2.093-.092-2.07-.102-2.048-.111-2.019-.12-1.988-.128-1.955-.134-1.918-.14-1.877-.144-1.833-.149-1.787-.151-2.585-.232-2.462-.233-3.072-.308-2.807-.299-1.915-.213-2.8-.328-3.349-.417-2.004-.268c1.03-15.25 2.56-30.842 4.32-45.887l.484-4.089c.164-1.358.33-2.71.496-4.057l.505-4.023c.17-1.335.34-2.663.512-3.983l.519-3.94.524-3.894.264-1.927.53-3.815.266-1.887.533-3.727.533-3.665.533-3.597.53-3.526.528-3.451.783-5.027.514-3.246.507-3.156.498-3.063.488-2.966.942-5.624.888-5.188.824-4.718.75-4.218.668-3.685.938-5.07.813-4.261.484-.078.816-.116.92-.114 1.019-.112.732-.073 1.172-.108 1.697-.141 1.365-.103-.295-.185 2.6-7.24a4.53 4.53 0 0 1 3.974-2.991l.216-.009 54.42-.75a2.48 2.48 0 0 1 2.507 2.204l.013.166.36 6.49-.02.03h.02Zm-37.49-6.67-7.385 7.959c4.428-.18 9.014-.342 13.488-.485l-6.103-7.474Z" fill="#FFF"/><path d="m227.933 154.665 10.46 12.81a9.998 9.998 0 0 0 2.069 1.933 27.508 27.508 0 0 1-3.026 7.66l-.314.522c-.156.254-.313.497-.467.73l-.307.45-.3.422-.293.393-.283.364-.272.335-.258.307-.243.278-.333.363-.373.384-.379.362-.095.085 13.144 65.402a5.11 5.11 0 0 1-1.437 4.669l-.173.161-23.23 20.77a5.13 5.13 0 0 1-7.05-.2l-.17-.18-19.6-21.6a5.13 5.13 0 0 1-1.08-5.053l.08-.227 24.743-64.728-.253-.3c-2.381-2.945-3.596-7.595-4.215-11.717.39-.21.751-.486 1.065-.825l12.59-13.57Z" fill="#FFDB60"/><path d="M265.463 161.295c116.089 9.182 131.265 75.171 133.057 86.975l.1.699.036.288.052.45.035.368c5.48 41.196-48.935 60.936-87.34 69.673l-.34 21.247-.915.174-1.552.278-1.808.305-1.754.28-.972.147-1.57.23-1.117.156-1.774.237-1.885.236-1.314.156-.673.076-1.377.15-1.415.146-.722.07-1.468.136-.747.065-1.516.124-1.543.115c-.52.036-1.042.071-1.57.104l-1.591.093c-11.752.633-25.125.24-35.417-3.188l5.64-71.64 3.592-.605-1.973-3.767-1.859-3.458c.068-1.014.137-2.028.209-3.04l.22-3.037.23-3.028.24-3.019.249-3.006.258-2.993.266-2.975.273-2.957.28-2.935.286-2.912.44-4.318.298-2.843.302-2.81.306-2.777.308-2.74.31-2.702.468-3.974.312-2.594.468-3.803.465-3.69.308-2.393.305-2.337.451-3.395.586-4.308.563-4.042.405-2.845.635-4.365.576-3.861.69-4.491.747-4.68.246-1.45Zm-234.98-11.92 72.09 2.52-1.81 48.44c26.677-20.85 58.512-29.829 77.076-33.524l1.65-.322.797-.15 1.535-.28 1.455-.254 1.37-.228 1.283-.205 1.194-.18.562-.083 1.542-.215 1.32-.171 1.084-.13 1.262-.136.55-.052-.01.02c-1.748 7.436-3.786 20.298-5.889 35.698l-.55 4.072-.552 4.177-.276 2.124-.553 4.31c-.093.725-.185 1.454-.277 2.185l-.553 4.419-.55 4.477-.55 4.524-.816 6.849-.806 6.89-.53 4.597-.523 4.586-.515 4.565-.507 4.532-.497 4.487-.726 6.623-.7 6.458-.885 8.289-.826 7.838-.938 9.023-1.111 10.868-1.318 13.18-.242 2.469a268.86 268.86 0 0 1-38.06-7.16l16.88-68.7c-12.104 16.83-33.496 22.016-46.642 23.598l-1.172.134-1.124.115-1.072.098c-.175.016-.347.03-.516.044l-.99.075-.932.061-.87.049-.805.037-.738.028-.974.027-.806.011h-.944l-.415-.007C18.068 277.532 26.595 178.251 29.73 154.46l.204-1.503.094-.66.167-1.13.189-1.195.1-.597Z" fill="#49ADCF"/><path d="m227.06 96.052 10.46 12.81a9.998 9.998 0 0 0 2.069 1.933 27.579 27.579 0 0 1-2.84 7.337l-.312.535-.31.507-.309.478-.305.45-.15.214-.295.408-.287.38-.277.35-.265.323-.252.294-.347.39-.306.325-.26.263-.39.367-.064.056-14.74-1c-2.554-2.92-3.834-7.756-4.475-12.025.39-.21.75-.486 1.065-.825l12.59-13.57Z" fill="#100000" opacity=".1" style="mix-blend-mode:normal" transform="translate(.873 58.613)"/><path d="m276.105 312.348-.022.027c-7.018 2.134-10.743 7.291-12.71 11.87l-.238.569-.22.561-.102.278-.195.547-.178.535-.083.263-.156.516-.14.5-.128.483-.167.689-.097.434-.123.608-.1.552-.053.318-.055.366-.078.597-.052.516-.005.068c-.228 4.62-3.023 6.77-5.222 7.751l-.333.142-.322.125-.306.108-.147.048-.28.086-.26.072-.344.084-.433.087-.243.037c-4.643.678-7.379-.655-8.933-2.086l-.248-.239a7.61 7.61 0 0 1-.434-.475l-.187-.233-.168-.226-.15-.219-.133-.208-.116-.197-.1-.182-.085-.167-.128-.277-.076-.19-.032-.091c-.81 1.27-2.394 1.97-3.802 2.353l-.397.101-.382.086-.363.07-.497.082-.293.04-.37.042-.456.036c-4.835.721-7.68-1.138-9.262-2.955l-.24-.286a9.572 9.572 0 0 1-.111-.142l-.209-.28a9.73 9.73 0 0 1-.097-.139l-.18-.27-.162-.26-.143-.248-.127-.234-.11-.217-.172-.374-.15-.378-.037-.107c-1.28 1.875-3.102 2.645-4.605 2.946l-.34.062-.327.046-.311.034-.293.022-.271.012-.249.004-.223-.002-.195-.006-.476-.038c-6.874.25-10.458-5.98-12.314-12.017l-.207-.696a40.228 40.228 0 0 1-.098-.346l-.184-.689-.17-.68-.158-.672-.144-.66-.132-.645-.12-.629-.109-.61-.143-.875-.12-.82-.1-.757-.08-.687-.082-.792-.056-.636-.053-.789c-2.275 15.502-7.343 19.724-10.611 20.78l-.297.09c-.097.026-.192.05-.285.071l-.274.057-.26.044-.248.03-.234.02-.218.011-.298.002-.259-.012-.15-.013-.131-.016-.24-.04-.105-.024c-5.186.098-6.851-2.724-7.295-5.305l-.05-.328-.038-.323-.027-.318a10.526 10.526 0 0 1-.01-.157l-.011-.307-.004-.298.004-.287.01-.275.025-.387.033-.351.051-.404.084-.5.038-.18c.907-10.32 2.852-18.196 4.946-24.026l.332-.904c.277-.739.556-1.443.835-2.113l.335-.787.333-.755c.11-.246.221-.487.331-.723l.33-.691c.054-.113.109-.224.163-.334l.324-.645.319-.613.314-.583.308-.553.15-.265.298-.509.29-.479.28-.45.271-.421.387-.58.36-.518.226-.31.312-.417.364-.463.364-.435.286-.32.102-.106c7.207-8.323 19.646-13.857 31.606-17.472l1.404-.417 1.398-.4c.697-.194 1.391-.383 2.08-.566l1.373-.357c.228-.058.455-.116.682-.172l1.35-.333 1.335-.317 1.316-.302 1.295-.286 1.272-.271 1.246-.257 1.22-.243 1.774-.338 1.142-.208 1.649-.289 1.564-.26.993-.157 1.408-.215 1.306-.188 1.568-.214.706-.092 1.14 2.148 1.07 2.038 1.437 2.786 1.133 2.226.956 1.905.995 2.004.765 1.56 1.04 2.15 1.057 2.215 1.064 2.27.8 1.734.796 1.753.527 1.177.784 1.775.772 1.783.758 1.785.494 1.189.725 1.778.47 1.18.46 1.173.446 1.166.433 1.157.418 1.147.404 1.135.195.562.379 1.115c.184.553.363 1.101.534 1.642l.332 1.074c.322 1.064.614 2.1.871 3.1Z" fill="#FFDEB7"/></g><g stroke="#000001" stroke-linecap="round" stroke-linejoin="round" stroke-width="2"><path d="M140.063 790.695s-101-1-136.93-.31M46.263 766.455l3.89 7.82M55.353 762.895l4.1 7.47M228.353 791.645s101-1 136.93-.31M322.153 767.415l-3.89 7.81M313.063 763.845l-4.1 7.48M100.753 200.355l-.93 13.8M151.303 257.735l3.93-32.21M178.763 166.645l-21 40.19a4.75 4.75 0 0 0 .61 5.32l9.61 11.17-6.76 7.59a6.4 6.4 0 0 0-1.53 5.35c1.33 7.79 8.31 39.32 17.43 57.84M57.503 76.225l-3 25.09M84.763 68.175s-10.45 7.74-13.95 32.79M102.063 74.495c-2.93 3.79-6.34 7.14-9.19 11a31.51 31.51 0 0 0-5.56 12.14M96.063 119.395s-14.09-4.84-34.21-1.14M203.073 318.395s1.1-12.39 5.26-17.8M224.963 333.335s-6.1-12.06.95-30.15M242.503 336.335s-6.26-15.59 2.06-30.48M349.643 232.975l-95.92 28.64M313.443 243.785l1.48-22.05M278.893 162.665l11.16 51.11a7.07 7.07 0 0 1-2.71 7.19l-7.49 5.53 5.4 7.46a7 7 0 0 1 .79 6.87l-5.34 12.74M275.093 325.925s38.56-3.37 63.29-13.71M79.943 726.875l-6.15 30.06s22 17.33 55.82 0l4.82-27.16-55.49-2.9M293.623 725.385l1 32.5s-22 17.33-55.83 0l.34-29.6 55.49-2.9"/></g></g></svg>